<svg width="14" height="18" viewBox="0 0 14 18" fill="none" xmlns="http://www.w3.org/2000/svg">
<path d="M3.85555 17.9569C3.47155 17.9569 3.16755 17.8449 2.94355 17.6209C2.71955 17.3969 2.60755 17.0769 2.60755 16.6609V14.3329H1.23955C0.935551 14.3329 0.695551 14.2609 0.519551 14.1169C0.359551 13.9569 0.279551 13.7409 0.279551 13.4689C0.279551 13.1809 0.359551 12.9649 0.519551 12.8209C0.695551 12.6609 0.935551 12.5809 1.23955 12.5809H2.60755V10.6369H1.23955C0.935551 10.6369 0.695551 10.5649 0.519551 10.4209C0.359551 10.2609 0.279551 10.0369 0.279551 9.74888C0.279551 9.47688 0.359551 9.26888 0.519551 9.12488C0.695551 8.96488 0.935551 8.88488 1.23955 8.88488H2.60755V2.11688C2.60755 1.71688 2.71155 1.41288 2.91955 1.20488C3.14355 0.980878 3.45555 0.868878 3.85555 0.868878H8.22355C9.43955 0.868878 10.4716 1.07688 11.3196 1.49288C12.1676 1.89288 12.8076 2.46088 13.2396 3.19688C13.6716 3.93288 13.8876 4.81288 13.8876 5.83688C13.8876 6.81288 13.6636 7.66088 13.2156 8.38088C12.7676 9.08488 12.1356 9.63688 11.3196 10.0369C10.5036 10.4369 9.52755 10.6369 8.39155 10.6369H5.12755V12.5809H8.39155C8.69555 12.5809 8.92755 12.6609 9.08755 12.8209C9.26355 12.9649 9.35155 13.1809 9.35155 13.4689C9.35155 13.7409 9.26355 13.9569 9.08755 14.1169C8.92755 14.2609 8.69555 14.3329 8.39155 14.3329H5.12755V16.6609C5.12755 17.0769 5.01555 17.3969 4.79155 17.6209C4.58355 17.8449 4.27155 17.9569 3.85555 17.9569ZM5.07955 8.88488H7.98355C9.11955 8.88488 9.98355 8.65288 10.5756 8.18888C11.1836 7.70888 11.4876 6.97288 11.4876 5.98088C11.4876 4.97288 11.1916 4.22088 10.5996 3.72488C10.0076 3.22888 9.12755 2.98088 7.95955 2.98088H5.07955V8.88488Z" fill="black"/>
</svg>
